# Blender v2.90.1 OBJ File: 'newPokemonGym.blend'
# www.blender.org
mtllib benches1.mtl
o benches_Cube.010
v 12.799445 -0.089291 -0.193285
v 12.799445 0.551503 -0.193285
v 12.799445 -0.089291 -39.748772
v 12.799445 0.551503 -39.748772
v 14.008040 -0.089291 -0.193285
v 14.008040 0.551503 -0.193285
v 14.008040 -0.089291 -39.748772
v 14.008040 0.551503 -39.748772
v 14.903256 0.551503 -39.748772
v 14.903256 -0.089291 -39.748772
v 14.903256 -0.089291 -0.193285
v 14.903256 0.551503 -0.193285
v 14.008040 1.389144 -39.748772
v 14.008040 1.389144 -0.193285
v 14.903256 1.389144 -39.748772
v 14.903256 1.389144 -0.193285
v 15.845971 0.551503 -39.748772
v 15.845971 0.551503 -0.193285
v 15.845971 1.389144 -39.748772
v 15.845971 1.389144 -0.193285
v 14.903256 2.272300 -39.748772
v 14.903256 2.272300 -0.193285
v 15.845971 2.272300 -39.748772
v 15.845971 2.272300 -0.193285
v 16.681923 1.389144 -39.748772
v 16.681923 1.389144 -0.193285
v 16.681923 2.272300 -39.748772
v 16.681923 2.272300 -0.193285
v 15.845971 2.995516 -39.748772
v 15.845971 2.995516 -0.193285
v 16.681923 2.995516 -39.748772
v 16.681923 2.995516 -0.193285
v 17.446476 2.272300 -39.748772
v 17.446476 2.272300 -0.193285
v 17.446476 2.995516 -39.748772
v 17.446476 2.995516 -0.193285
v 16.681923 3.862488 -39.748772
v 16.681923 3.862488 -0.193285
v 17.446476 3.862488 -39.748772
v 17.446476 3.862488 -0.193285
v 18.235521 2.995516 -39.748772
v 18.235521 2.995516 -0.193285
v 18.235521 3.862488 -39.748772
v 18.235521 3.862488 -0.193285
v 17.446476 4.696267 -39.748772
v 17.446476 4.696267 -0.193285
v 18.235521 4.696267 -39.748772
v 18.235521 4.696267 -0.193285
v 19.133148 3.862488 -39.748772
v 19.133148 3.862488 -0.193285
v 19.133148 4.696267 -39.748772
v 19.133148 4.696267 -0.193285
v 18.235521 5.510412 -39.748772
v 18.235521 5.510412 -0.193285
v 19.133148 5.510412 -39.748772
v 19.133148 5.510412 -0.193285
v 19.879654 4.696267 -39.748772
v 19.879654 4.696267 -0.193285
v 19.879654 5.510412 -39.748772
v 19.879654 5.510412 -0.193285
v 19.133148 6.364226 -39.748772
v 19.133148 6.364226 -0.193285
v 19.879654 6.364226 -39.748772
v 19.879654 6.364226 -0.193285
v 20.682823 5.510412 -39.748772
v 20.682823 5.510412 -0.193285
v 20.682823 6.364226 -39.748772
v 20.682823 6.364226 -0.193285
v 19.879654 7.216765 -39.748772
v 19.879654 7.216765 -0.193285
v 20.682823 7.216765 -39.748772
v 20.682823 7.216765 -0.193285
v 26.642067 6.364226 -39.748772
v 26.642067 6.364226 -0.193285
v 26.642067 7.216765 -39.748772
v 26.642067 7.216765 -0.193285
v 12.799445 -0.089291 -39.748772
v 12.799445 0.551503 -39.748772
v 12.799445 -0.089291 -0.193285
v 12.799445 0.551503 -0.193285
v 14.008040 -0.089291 -39.748772
v 14.008040 0.551503 -39.748772
v 14.008040 -0.089291 -0.193285
v 14.008040 0.551503 -0.193285
v 14.903256 0.551503 -0.193285
v 14.903256 -0.089291 -0.193285
v 14.903256 -0.089291 -39.748772
v 14.903256 0.551503 -39.748772
v 14.008040 1.389144 -0.193285
v 14.008040 1.389144 -39.748772
v 14.903256 1.389144 -0.193285
v 14.903256 1.389144 -39.748772
v 15.845971 0.551503 -0.193285
v 15.845971 0.551503 -39.748772
v 15.845971 1.389144 -0.193285
v 15.845971 1.389144 -39.748772
v 14.903256 2.272300 -0.193285
v 14.903256 2.272300 -39.748772
v 15.845971 2.272300 -0.193285
v 15.845971 2.272300 -39.748772
v 16.681923 1.389144 -0.193285
v 16.681923 1.389144 -39.748772
v 16.681923 2.272300 -0.193285
v 16.681923 2.272300 -39.748772
v 15.845971 2.995516 -0.193285
v 15.845971 2.995516 -39.748772
v 16.681923 2.995516 -0.193285
v 16.681923 2.995516 -39.748772
v 17.446476 2.272300 -0.193285
v 17.446476 2.272300 -39.748772
v 17.446476 2.995516 -0.193285
v 17.446476 2.995516 -39.748772
v 16.681923 3.862488 -0.193285
v 16.681923 3.862488 -39.748772
v 17.446476 3.862488 -0.193285
v 17.446476 3.862488 -39.748772
v 18.235521 2.995516 -0.193285
v 18.235521 2.995516 -39.748772
v 18.235521 3.862488 -0.193285
v 18.235521 3.862488 -39.748772
v 17.446476 4.696267 -0.193285
v 17.446476 4.696267 -39.748772
v 18.235521 4.696267 -0.193285
v 18.235521 4.696267 -39.748772
v 19.133148 3.862488 -0.193285
v 19.133148 3.862488 -39.748772
v 19.133148 4.696267 -0.193285
v 19.133148 4.696267 -39.748772
v 18.235521 5.510412 -0.193285
v 18.235521 5.510412 -39.748772
v 19.133148 5.510412 -0.193285
v 19.133148 5.510412 -39.748772
v 19.879654 4.696267 -0.193285
v 19.879654 4.696267 -39.748772
v 19.879654 5.510412 -0.193285
v 19.879654 5.510412 -39.748772
v 19.133148 6.364226 -0.193285
v 19.133148 6.364226 -39.748772
v 19.879654 6.364226 -0.193285
v 19.879654 6.364226 -39.748772
v 20.682823 5.510412 -0.193285
v 20.682823 5.510412 -39.748772
v 20.682823 6.364226 -0.193285
v 20.682823 6.364226 -39.748772
v 19.879654 7.216765 -0.193285
v 19.879654 7.216765 -39.748772
v 20.682823 7.216765 -0.193285
v 20.682823 7.216765 -39.748772
v 26.642067 6.364226 -0.193285
v 26.642067 6.364226 -39.748772
v 26.642067 7.216765 -0.193285
v 26.642067 7.216765 -39.748772
vt -0.862027 -1.237027
vt 1.862027 -1.237027
vt 1.862027 1.487027
vt -0.862027 1.487027
vt 0.375000 0.250000
vt 0.625000 0.250000
vt 0.625000 0.500000
vt 0.375000 0.500000
vt 0.625000 0.750000
vt 0.375000 0.750000
vt 0.375000 0.750000
vt 0.625000 0.750000
vt 0.625000 1.000000
vt 0.375000 1.000000
vt 0.125000 0.500000
vt 0.125000 0.750000
vt 1.211907 7.465537
vt 1.836870 8.708659
vt 1.008759 9.646827
vt 0.383796 8.403704
vt 0.375000 0.500000
vt 0.625000 0.500000
vt 1.587128 6.758067
vt 0.677138 5.526083
vt 1.224634 4.847261
vt 2.022847 6.089405
vt 0.494728 6.510981
vt -0.257153 6.713410
vt -0.321737 5.748478
vt 0.625000 0.750000
vt 0.625000 0.750000
vt 0.625000 0.750000
vt 0.625000 0.500000
vt 0.625000 0.500000
vt 0.625000 0.750000
vt -1.167158 5.308875
vt -0.465454 3.464176
vt -0.162383 4.186239
vt 0.257282 4.244367
vt 0.535996 3.274451
vt -0.172115 2.132522
vt 0.262759 2.255708
vt 0.625000 0.750000
vt 0.625000 0.500000
vt 0.625000 0.500000
vt 0.625000 0.750000
vt 1.056819 2.814630
vt 1.695350 4.406471
vt -1.813088 4.798511
vt -1.135645 2.866409
vt -0.419125 1.430385
vt 0.598268 1.418956
vt 1.101704 1.129090
vt 1.509761 2.494699
vt 0.625000 0.750000
vt 0.625000 0.500000
vt 0.625000 0.500000
vt 0.625000 0.750000
vt -0.997967 0.824748
vt -0.166411 -0.692141
vt 0.009005 -0.060734
vt -1.682809 2.290183
vt 0.408013 0.124389
vt 0.764983 -0.548457
vt 1.271348 -0.740658
vt 1.573758 0.925856
vt 0.625000 0.750000
vt 0.625000 0.500000
vt 0.625000 0.500000
vt 0.625000 0.750000
vt 0.625000 0.500000
vt 0.625000 0.750000
vt -1.504895 0.231117
vt -0.685383 -1.345899
vt 0.661969 -1.724852
vt 0.306420 -1.950275
vt 0.184669 -2.576852
vt 1.041391 -2.319001
vt 0.625000 0.500000
vt 0.625000 0.750000
vt 1.619670 -2.473334
vt 1.812950 -0.901259
vt -1.177656 -2.093477
vt -0.305188 -3.388121
vt 0.648196 -4.410883
vt 0.709265 -3.655399
vt 1.014273 -3.382622
vt 1.435194 -3.917849
vt 0.625000 0.500000
vt 0.625000 0.500000
vt 0.625000 0.500000
vt 0.625000 0.750000
vt 0.625000 0.750000
vt -0.640709 -4.057160
vt 0.276052 -5.093201
vt 1.126227 -6.122296
vt 1.256389 -5.515150
vt 1.890510 -5.236756
vt 1.969202 -6.081931
vt 1.162003 -7.805885
vt 2.004977 -7.765517
vt 0.625000 0.500000
vt 0.625000 0.500000
vt 0.625000 0.750000
vt 0.625000 0.500000
vt 0.625000 0.500000
vt 0.625000 0.750000
vt 0.625000 0.750000
vt 1.179872 -8.646827
vt 2.022847 -8.606460
vt 0.625000 0.750000
vt 0.625000 0.750000
vt 0.625000 0.500000
vt 0.625000 0.500000
vt 0.625000 0.500000
vt 0.625000 0.500000
vt 0.625000 0.750000
vt 0.625000 0.750000
vt 3.504986 -0.040474
vt 3.504986 1.028604
vt -0.006524 1.028604
vt -0.006524 -0.040475
vt -0.862027 -1.237027
vt -0.862027 1.487027
vt 1.862027 1.487027
vt 1.862027 -1.237027
vt 0.375000 0.250000
vt 0.375000 0.500000
vt 0.625000 0.500000
vt 0.625000 0.250000
vt 0.625000 0.750000
vt 0.625000 0.750000
vt 0.375000 0.750000
vt 0.375000 0.750000
vt 0.375000 1.000000
vt 0.625000 1.000000
vt 0.125000 0.500000
vt 0.125000 0.750000
vt 1.211907 7.465537
vt 0.383796 8.403704
vt 1.008759 9.646827
vt 1.836870 8.708659
vt 0.375000 0.500000
vt 0.625000 0.500000
vt 1.587128 6.758067
vt 2.022847 6.089405
vt 1.224634 4.847261
vt 0.677138 5.526083
vt 0.494728 6.510981
vt -0.321737 5.748478
vt -0.257153 6.713410
vt 0.625000 0.750000
vt 0.625000 0.750000
vt 0.625000 0.750000
vt 0.625000 0.750000
vt 0.625000 0.500000
vt 0.625000 0.500000
vt -0.162383 4.186239
vt -0.465454 3.464176
vt -1.167158 5.308875
vt 0.257282 4.244367
vt 0.535996 3.274451
vt 0.262759 2.255708
vt -0.172115 2.132522
vt 0.625000 0.750000
vt 0.625000 0.750000
vt 0.625000 0.500000
vt 0.625000 0.500000
vt 1.695350 4.406471
vt 1.056819 2.814630
vt -1.135645 2.866409
vt -1.813088 4.798511
vt 0.598268 1.418956
vt -0.419125 1.430385
vt 1.509761 2.494699
vt 1.101704 1.129090
vt 0.625000 0.750000
vt 0.625000 0.750000
vt 0.625000 0.500000
vt 0.625000 0.500000
vt 0.009005 -0.060734
vt -0.166411 -0.692141
vt -0.997967 0.824748
vt -1.682809 2.290183
vt 0.408013 0.124389
vt 0.764983 -0.548457
vt 1.573758 0.925856
vt 1.271348 -0.740658
vt 0.625000 0.750000
vt 0.625000 0.750000
vt 0.625000 0.500000
vt 0.625000 0.500000
vt 0.625000 0.750000
vt 0.625000 0.500000
vt -0.685383 -1.345899
vt -1.504895 0.231117
vt 0.661969 -1.724852
vt 1.041391 -2.319001
vt 0.184669 -2.576852
vt 0.306420 -1.950275
vt 0.625000 0.750000
vt 0.625000 0.500000
vt 1.812950 -0.901259
vt 1.619670 -2.473334
vt -0.305188 -3.388121
vt -1.177656 -2.093477
vt 0.709265 -3.655399
vt 0.648196 -4.410883
vt 1.014273 -3.382622
vt 1.435194 -3.917849
vt 0.625000 0.500000
vt 0.625000 0.500000
vt 0.625000 0.500000
vt 0.625000 0.750000
vt 0.625000 0.750000
vt 0.276052 -5.093201
vt -0.640709 -4.057160
vt 1.256389 -5.515150
vt 1.126227 -6.122296
vt 1.890510 -5.236756
vt 1.969202 -6.081931
vt 2.004977 -7.765517
vt 1.162003 -7.805885
vt 0.625000 0.500000
vt 0.625000 0.500000
vt 0.625000 0.750000
vt 0.625000 0.750000
vt 0.625000 0.500000
vt 0.625000 0.500000
vt 0.625000 0.750000
vt 2.022847 -8.606460
vt 1.179872 -8.646827
vt 0.625000 0.750000
vt 0.625000 0.750000
vt 0.625000 0.500000
vt 0.625000 0.500000
vt 0.625000 0.500000
vt 0.625000 0.500000
vt 0.625000 0.750000
vt 0.625000 0.750000
vt 3.504986 -0.040474
vt -0.006524 -0.040475
vt -0.006524 1.028604
vt 3.504986 1.028604
vn -1.0000 0.0000 0.0000
vn 0.0000 0.0000 -1.0000
vn 0.0000 0.0000 1.0000
vn 0.0000 -1.0000 0.0000
vn 0.0000 1.0000 0.0000
vn 1.0000 0.0000 0.0000
usemtl Material.002
s off
f 1/1/1 2/2/1 4/3/1 3/4/1
f 3/5/2 4/6/2 8/7/2 7/8/2
f 6/9/3 5/10/3 11/11/3 12/12/3
f 5/10/3 6/9/3 2/13/3 1/14/3
f 3/15/4 7/8/4 5/10/4 1/16/4
f 8/17/5 4/18/5 2/19/5 6/20/5
f 10/21/6 9/22/6 12/12/6 11/11/6
f 5/10/4 7/8/4 10/21/4 11/11/4
f 9/23/2 15/24/2 19/25/2 17/26/2
f 7/8/2 8/7/2 9/22/2 10/21/2
f 13/27/5 14/28/5 16/29/5 15/24/5
f 8/17/1 6/20/1 14/28/1 13/27/1
f 9/23/2 8/17/2 13/27/2 15/24/2
f 6/9/3 12/12/3 16/30/3 14/31/3
f 18/32/6 17/33/6 19/34/6 20/35/6
f 12/12/4 9/22/4 17/33/4 18/32/4
f 16/30/3 12/12/3 18/32/3 20/35/3
f 16/29/3 20/36/3 24/37/3 22/38/3
f 21/39/5 22/38/5 24/37/5 23/40/5
f 23/40/1 24/37/1 30/41/1 29/42/1
f 15/24/1 16/29/1 22/38/1 21/39/1
f 19/25/2 15/24/2 21/39/2 23/40/2
f 26/43/6 25/44/6 27/45/6 28/46/6
f 19/25/2 23/40/2 27/47/2 25/48/2
f 20/35/4 19/34/4 25/44/4 26/43/4
f 24/37/3 20/36/3 26/49/3 28/50/3
f 29/42/5 30/41/5 32/51/5 31/52/5
f 24/37/3 28/50/3 32/51/3 30/41/3
f 27/47/2 23/40/2 29/42/2 31/52/2
f 27/47/2 31/52/2 35/53/2 33/54/2
f 34/55/6 33/56/6 35/57/6 36/58/6
f 32/51/3 36/59/3 40/60/3 38/61/3
f 32/51/3 28/50/3 34/62/3 36/59/3
f 28/46/4 27/45/4 33/56/4 34/55/4
f 37/63/5 38/61/5 40/60/5 39/64/5
f 31/52/1 32/51/1 38/61/1 37/63/1
f 35/53/2 31/52/2 37/63/2 39/64/2
f 35/53/2 39/64/2 43/65/2 41/66/2
f 42/67/6 41/68/6 43/69/6 44/70/6
f 44/70/4 43/69/4 49/71/4 50/72/4
f 36/58/4 35/57/4 41/68/4 42/67/4
f 40/60/3 36/59/3 42/73/3 44/74/3
f 45/75/5 46/76/5 48/77/5 47/78/5
f 40/60/3 44/74/3 48/77/3 46/76/3
f 39/64/1 40/60/1 46/76/1 45/75/1
f 43/65/2 39/64/2 45/75/2 47/78/2
f 50/72/6 49/71/6 51/79/6 52/80/6
f 43/65/2 47/78/2 51/81/2 49/82/2
f 48/77/3 44/74/3 50/83/3 52/84/3
f 48/77/3 52/84/3 56/85/3 54/86/3
f 53/87/5 54/86/5 56/85/5 55/88/5
f 51/79/2 55/89/2 59/90/2 57/91/2
f 51/81/2 47/78/2 53/87/2 55/88/2
f 47/78/1 48/77/1 54/86/1 53/87/1
f 58/92/6 57/91/6 59/90/6 60/93/6
f 52/80/4 51/79/4 57/91/4 58/92/4
f 56/85/3 52/84/3 58/94/3 60/95/3
f 56/85/3 60/95/3 64/96/3 62/97/3
f 61/98/5 62/97/5 64/96/5 63/99/5
f 63/99/1 64/96/1 70/100/1 69/101/1
f 55/88/1 56/85/1 62/97/1 61/98/1
f 59/90/2 55/89/2 61/102/2 63/103/2
f 66/104/6 65/105/6 67/106/6 68/107/6
f 59/90/2 63/103/2 67/106/2 65/105/2
f 60/93/4 59/90/4 65/105/4 66/104/4
f 64/108/3 60/93/3 66/104/3 68/107/3
f 69/101/5 70/100/5 72/109/5 71/110/5
f 64/108/3 68/107/3 72/111/3 70/112/3
f 67/106/2 63/103/2 69/113/2 71/114/2
f 67/106/2 71/114/2 75/115/2 73/116/2
f 74/117/6 73/116/6 75/115/6 76/118/6
f 71/119/5 72/120/5 76/121/5 75/122/5
f 72/111/3 68/107/3 74/117/3 76/118/3
f 68/107/4 67/106/4 73/116/4 74/117/4
f 77/123/1 79/124/1 80/125/1 78/126/1
f 79/127/3 83/128/3 84/129/3 80/130/3
f 82/131/2 88/132/2 87/133/2 81/134/2
f 81/134/2 77/135/2 78/136/2 82/131/2
f 79/137/4 77/138/4 81/134/4 83/128/4
f 84/139/5 82/140/5 78/141/5 80/142/5
f 86/143/6 87/133/6 88/132/6 85/144/6
f 81/134/4 87/133/4 86/143/4 83/128/4
f 85/145/3 93/146/3 95/147/3 91/148/3
f 83/128/3 86/143/3 85/144/3 84/129/3
f 89/149/5 91/148/5 92/150/5 90/151/5
f 84/139/1 89/149/1 90/151/1 82/140/1
f 85/145/3 91/148/3 89/149/3 84/139/3
f 82/131/2 90/152/2 92/153/2 88/132/2
f 94/154/6 96/155/6 95/156/6 93/157/6
f 88/132/4 94/154/4 93/157/4 85/144/4
f 92/153/2 96/155/2 94/154/2 88/132/2
f 92/150/2 98/158/2 100/159/2 96/160/2
f 97/161/5 99/162/5 100/159/5 98/158/5
f 99/162/1 105/163/1 106/164/1 100/159/1
f 91/148/1 97/161/1 98/158/1 92/150/1
f 95/147/3 99/162/3 97/161/3 91/148/3
f 102/165/6 104/166/6 103/167/6 101/168/6
f 95/147/3 101/169/3 103/170/3 99/162/3
f 96/155/4 102/165/4 101/168/4 95/156/4
f 100/159/2 104/171/2 102/172/2 96/160/2
f 105/163/5 107/173/5 108/174/5 106/164/5
f 100/159/2 106/164/2 108/174/2 104/171/2
f 103/170/3 107/173/3 105/163/3 99/162/3
f 103/170/3 109/175/3 111/176/3 107/173/3
f 110/177/6 112/178/6 111/179/6 109/180/6
f 108/174/2 114/181/2 116/182/2 112/183/2
f 108/174/2 112/183/2 110/184/2 104/171/2
f 104/166/4 110/177/4 109/180/4 103/167/4
f 113/185/5 115/186/5 116/182/5 114/181/5
f 107/173/1 113/185/1 114/181/1 108/174/1
f 111/176/3 115/186/3 113/185/3 107/173/3
f 111/176/3 117/187/3 119/188/3 115/186/3
f 118/189/6 120/190/6 119/191/6 117/192/6
f 120/190/4 126/193/4 125/194/4 119/191/4
f 112/178/4 118/189/4 117/192/4 111/179/4
f 116/182/2 120/195/2 118/196/2 112/183/2
f 121/197/5 123/198/5 124/199/5 122/200/5
f 116/182/2 122/200/2 124/199/2 120/195/2
f 115/186/1 121/197/1 122/200/1 116/182/1
f 119/188/3 123/198/3 121/197/3 115/186/3
f 126/193/6 128/201/6 127/202/6 125/194/6
f 119/188/3 125/203/3 127/204/3 123/198/3
f 124/199/2 128/205/2 126/206/2 120/195/2
f 124/199/2 130/207/2 132/208/2 128/205/2
f 129/209/5 131/210/5 132/208/5 130/207/5
f 127/202/3 133/211/3 135/212/3 131/213/3
f 127/204/3 131/210/3 129/209/3 123/198/3
f 123/198/1 129/209/1 130/207/1 124/199/1
f 134/214/6 136/215/6 135/212/6 133/211/6
f 128/201/4 134/214/4 133/211/4 127/202/4
f 132/208/2 136/216/2 134/217/2 128/205/2
f 132/208/2 138/218/2 140/219/2 136/216/2
f 137/220/5 139/221/5 140/219/5 138/218/5
f 139/221/1 145/222/1 146/223/1 140/219/1
f 131/210/1 137/220/1 138/218/1 132/208/1
f 135/212/3 139/224/3 137/225/3 131/213/3
f 142/226/6 144/227/6 143/228/6 141/229/6
f 135/212/3 141/229/3 143/228/3 139/224/3
f 136/215/4 142/226/4 141/229/4 135/212/4
f 140/230/2 144/227/2 142/226/2 136/215/2
f 145/222/5 147/231/5 148/232/5 146/223/5
f 140/230/2 146/233/2 148/234/2 144/227/2
f 143/228/3 147/235/3 145/236/3 139/224/3
f 143/228/3 149/237/3 151/238/3 147/235/3
f 150/239/6 152/240/6 151/238/6 149/237/6
f 147/241/5 151/242/5 152/243/5 148/244/5
f 148/234/2 152/240/2 150/239/2 144/227/2
f 144/227/4 150/239/4 149/237/4 143/228/4
