# Blender v2.90.1 OBJ File: 'newPokemonGym.blend'
# www.blender.org
mtllib gymRoof.mtl
o GymRoof_Cube.024
v -28.156366 8.836929 2.432581
v -28.156366 8.836929 -43.080578
v 28.156366 8.836929 2.432581
v 28.156366 8.836929 -43.080578
v -28.156366 10.879997 2.432581
v -28.156366 10.879997 -43.080578
v 28.156366 10.879997 -43.080578
v 28.156366 10.879997 2.432581
v -0.135367 8.836929 -43.080578
v -0.135367 10.879997 -43.080578
v -0.135367 8.836929 2.432581
v -0.135367 10.879997 2.432581
v -28.156366 8.836929 -20.323997
v -28.156366 10.879997 -20.323999
v 28.156366 8.836929 -20.323999
v 28.156366 10.879997 -20.323997
v -0.135367 8.836929 -20.323997
v 14.010499 10.879997 -43.080578
v 14.010499 8.836929 2.432581
v 14.010500 8.836929 -43.080578
v 14.010500 10.879997 2.432581
v 14.010500 8.836929 -20.323997
v -14.145867 8.836929 -43.080578
v -14.145867 10.879997 2.432581
v -14.145866 10.879997 -43.080578
v -14.145866 8.836929 2.432581
v -14.145867 8.836929 -20.323997
v -28.156366 8.836929 -8.945708
v 28.156366 10.879997 -8.945708
v -0.135367 8.836929 -8.945708
v -28.156366 10.879997 -8.945709
v 28.156366 8.836929 -8.945709
v 14.010500 8.836929 -8.945708
v -14.145866 8.836929 -8.945708
v -21.501228 10.879997 -4.222556
v -28.156366 10.879997 2.432581
v -21.501228 10.879997 -36.425442
v -28.156366 10.879997 -43.080578
v 21.501228 10.879997 -4.222556
v 28.156366 10.879997 2.432581
v 21.501228 10.879997 -36.425442
v 28.156366 10.879997 -43.080578
v -0.135367 10.879997 -36.425442
v -0.135367 10.879997 -43.080578
v -0.135367 10.879997 -4.222556
v -0.135367 10.879997 2.432581
v -28.156366 10.879997 -20.323999
v -21.501228 10.879997 -20.323999
v 21.501228 10.879997 -20.323997
v 28.156366 10.879997 -20.323997
v 14.010499 10.879997 -43.080578
v 14.010499 10.879997 -36.425442
v 14.010500 10.879997 2.432581
v 14.010500 10.879997 -4.222556
v -14.145867 10.879997 2.432581
v -14.145867 10.879997 -4.222556
v -14.145866 10.879997 -43.080578
v -14.145866 10.879997 -36.425442
v 28.156366 10.879997 -8.945708
v 21.501228 10.879997 -8.945708
v -28.156366 10.879997 -8.945709
v -21.501228 10.879997 -8.945709
v 18.339743 13.847092 -20.323997
v 21.501228 10.685607 -20.323997
v -18.339743 13.847092 -8.945709
v -21.501228 10.685607 -8.945709
v -0.135367 13.847092 -7.384042
v -0.135367 10.685607 -4.222556
v 14.010500 13.847092 -7.384042
v 14.010500 10.685607 -4.222556
v -0.135367 13.847092 -33.263958
v -0.135367 10.685607 -36.425442
v -14.145866 13.847092 -33.263958
v -14.145866 10.685607 -36.425442
v -18.339743 13.847092 -7.384041
v -21.501228 10.685607 -4.222556
v -14.145867 13.847092 -7.384042
v -14.145867 10.685607 -4.222556
v 18.339743 13.847092 -7.384041
v 21.501228 10.685607 -4.222556
v 18.339743 13.847092 -8.945708
v 21.501228 10.685607 -8.945708
v 18.339743 13.847092 -33.263958
v 21.501228 10.685607 -36.425442
v 14.010499 13.847092 -33.263958
v 14.010499 10.685607 -36.425442
v -18.339743 13.847092 -33.263958
v -21.501228 10.685607 -36.425442
v -18.339743 13.847092 -20.323999
v -21.501228 10.685607 -20.323999
v 28.156366 8.836929 2.432581
v 28.156366 8.836929 -43.080578
v -28.156366 8.836929 2.432581
v -28.156366 8.836929 -43.080578
v 28.156366 10.879997 2.432581
v 28.156366 10.879997 -43.080578
v -28.156366 10.879997 -43.080578
v -28.156366 10.879997 2.432581
v 0.135367 8.836929 -43.080578
v 0.135367 10.879997 -43.080578
v 0.135367 8.836929 2.432581
v 0.135367 10.879997 2.432581
v 28.156366 8.836929 -20.323997
v 28.156366 10.879997 -20.323999
v -28.156366 8.836929 -20.323999
v -28.156366 10.879997 -20.323997
v 0.135367 8.836929 -20.323997
v -14.010499 10.879997 -43.080578
v -14.010499 8.836929 2.432581
v -14.010500 8.836929 -43.080578
v -14.010500 10.879997 2.432581
v -14.010500 8.836929 -20.323997
v 14.145867 8.836929 -43.080578
v 14.145867 10.879997 2.432581
v 14.145866 10.879997 -43.080578
v 14.145866 8.836929 2.432581
v 14.145867 8.836929 -20.323997
v 28.156366 8.836929 -8.945708
v -28.156366 10.879997 -8.945708
v 0.135367 8.836929 -8.945708
v 28.156366 10.879997 -8.945709
v -28.156366 8.836929 -8.945709
v -14.010500 8.836929 -8.945708
v 14.145866 8.836929 -8.945708
v 21.501228 10.879997 -4.222556
v 28.156366 10.879997 2.432581
v 21.501228 10.879997 -36.425442
v 28.156366 10.879997 -43.080578
v -21.501228 10.879997 -4.222556
v -28.156366 10.879997 2.432581
v -21.501228 10.879997 -36.425442
v -28.156366 10.879997 -43.080578
v 0.135367 10.879997 -36.425442
v 0.135367 10.879997 -43.080578
v 0.135367 10.879997 -4.222556
v 0.135367 10.879997 2.432581
v 28.156366 10.879997 -20.323999
v 21.501228 10.879997 -20.323999
v -21.501228 10.879997 -20.323997
v -28.156366 10.879997 -20.323997
v -14.010499 10.879997 -43.080578
v -14.010499 10.879997 -36.425442
v -14.010500 10.879997 2.432581
v -14.010500 10.879997 -4.222556
v 14.145867 10.879997 2.432581
v 14.145867 10.879997 -4.222556
v 14.145866 10.879997 -43.080578
v 14.145866 10.879997 -36.425442
v -28.156366 10.879997 -8.945708
v -21.501228 10.879997 -8.945708
v 28.156366 10.879997 -8.945709
v 21.501228 10.879997 -8.945709
v -18.339743 13.847092 -20.323997
v -21.501228 10.685607 -20.323997
v 18.339743 13.847092 -8.945709
v 21.501228 10.685607 -8.945709
v 0.135367 13.847092 -7.384042
v 0.135367 10.685607 -4.222556
v -14.010500 13.847092 -7.384042
v -14.010500 10.685607 -4.222556
v 0.135367 13.847092 -33.263958
v 0.135367 10.685607 -36.425442
v 14.145866 13.847092 -33.263958
v 14.145866 10.685607 -36.425442
v 18.339743 13.847092 -7.384041
v 21.501228 10.685607 -4.222556
v 14.145867 13.847092 -7.384042
v 14.145867 10.685607 -4.222556
v -18.339743 13.847092 -7.384041
v -21.501228 10.685607 -4.222556
v -18.339743 13.847092 -8.945708
v -21.501228 10.685607 -8.945708
v -18.339743 13.847092 -33.263958
v -21.501228 10.685607 -36.425442
v -14.010499 13.847092 -33.263958
v -14.010499 10.685607 -36.425442
v 18.339743 13.847092 -33.263958
v 21.501228 10.685607 -36.425442
v 18.339743 13.847092 -20.323999
v 21.501228 10.685607 -20.323999
vt 0.375000 0.125000
vt 0.625000 0.125000
vt 0.625000 0.250000
vt 0.375000 0.250000
vt 0.375000 0.437200
vt 0.625000 0.437200
vt 0.625000 0.500000
vt 0.375000 0.500000
vt 0.375000 0.687500
vt 0.625000 0.687500
vt 0.625000 0.750000
vt 0.375000 0.750000
vt 0.375000 0.937800
vt 0.625000 0.937800
vt 0.625000 1.000000
vt 0.375000 1.000000
vt 0.312200 0.687500
vt 0.312200 0.750000
vt 0.875000 0.500000
vt 0.812800 0.500000
vt 0.812800 0.500000
vt 0.875000 0.500000
vt 0.625000 0.500000
vt 0.625000 0.625000
vt 0.625000 0.625000
vt 0.625000 0.750000
vt 0.687801 0.750000
vt 0.687801 0.750000
vt 0.875000 0.750000
vt 0.875000 0.687500
vt 0.875000 0.687500
vt 0.875000 0.750000
vt 0.750601 0.750000
vt 0.812800 0.750000
vt 0.812800 0.750000
vt 0.750601 0.750000
vt 0.750601 0.500000
vt 0.687800 0.500000
vt 0.687800 0.500000
vt 0.750601 0.500000
vt 0.187200 0.687500
vt 0.249399 0.687500
vt 0.249399 0.750000
vt 0.187200 0.750000
vt 0.375000 0.812800
vt 0.625000 0.812800
vt 0.625000 0.875601
vt 0.375000 0.875601
vt 0.375000 0.312200
vt 0.625000 0.312200
vt 0.625000 0.374399
vt 0.375000 0.374399
vt 0.187200 0.500000
vt 0.249399 0.500000
vt 0.249399 0.625000
vt 0.187200 0.625000
vt 0.625000 0.687500
vt 0.312200 0.500000
vt 0.375000 0.625000
vt 0.312200 0.625000
vt 0.375000 0.062500
vt 0.625000 0.062500
vt 0.125000 0.500000
vt 0.125000 0.625000
vt 0.125000 0.687500
vt 0.125000 0.750000
vt 0.875000 0.625000
vt 0.875000 0.625000
vt 0.375000 0.000000
vt 0.625000 0.000000
vt 0.845455 0.687500
vt 0.845454 0.713444
vt 0.845454 0.713444
vt 0.845455 0.687500
vt 0.845455 0.625000
vt 0.845455 0.536556
vt 0.687801 0.536556
vt 0.654545 0.536556
vt 0.654546 0.687500
vt 0.654545 0.713444
vt 0.812801 0.713444
vt 0.812801 0.536556
vt 0.750601 0.536556
vt 0.687801 0.713444
vt 0.750601 0.713444
vt 0.654545 0.625000
vt 0.845455 0.536556
vt 0.812801 0.536556
vt 0.831419 0.687500
vt 0.831419 0.696078
vt 0.812801 0.696078
vt 0.750601 0.696078
vt 0.687800 0.696078
vt 0.668581 0.696078
vt 0.668581 0.687500
vt 0.668581 0.625000
vt 0.668581 0.553922
vt 0.687801 0.553922
vt 0.750601 0.553922
vt 0.812801 0.553922
vt 0.831419 0.553922
vt 0.831419 0.625000
vt 0.687801 0.536556
vt 0.654545 0.536556
vt 0.750601 0.536556
vt 0.687801 0.713444
vt 0.750601 0.713444
vt 0.845455 0.625000
vt 0.654545 0.713444
vt 0.654545 0.625000
vt 0.654546 0.687500
vt 0.812801 0.713444
vt 0.375000 0.125000
vt 0.375000 0.250000
vt 0.625000 0.250000
vt 0.625000 0.125000
vt 0.375000 0.437200
vt 0.375000 0.500000
vt 0.625000 0.500000
vt 0.625000 0.437200
vt 0.375000 0.687500
vt 0.375000 0.750000
vt 0.625000 0.750000
vt 0.625000 0.687500
vt 0.375000 0.937800
vt 0.375000 1.000000
vt 0.625000 1.000000
vt 0.625000 0.937800
vt 0.312200 0.687500
vt 0.312200 0.750000
vt 0.875000 0.500000
vt 0.875000 0.500000
vt 0.812800 0.500000
vt 0.812800 0.500000
vt 0.625000 0.500000
vt 0.625000 0.625000
vt 0.625000 0.625000
vt 0.625000 0.750000
vt 0.687801 0.750000
vt 0.687801 0.750000
vt 0.875000 0.750000
vt 0.875000 0.750000
vt 0.875000 0.687500
vt 0.875000 0.687500
vt 0.750601 0.750000
vt 0.750601 0.750000
vt 0.812800 0.750000
vt 0.812800 0.750000
vt 0.750601 0.500000
vt 0.750601 0.500000
vt 0.687800 0.500000
vt 0.687800 0.500000
vt 0.187200 0.687500
vt 0.187200 0.750000
vt 0.249399 0.750000
vt 0.249399 0.687500
vt 0.375000 0.812800
vt 0.375000 0.875601
vt 0.625000 0.875601
vt 0.625000 0.812800
vt 0.375000 0.312200
vt 0.375000 0.374399
vt 0.625000 0.374399
vt 0.625000 0.312200
vt 0.187200 0.500000
vt 0.187200 0.625000
vt 0.249399 0.625000
vt 0.249399 0.500000
vt 0.625000 0.687500
vt 0.312200 0.500000
vt 0.312200 0.625000
vt 0.375000 0.625000
vt 0.375000 0.062500
vt 0.625000 0.062500
vt 0.125000 0.500000
vt 0.125000 0.625000
vt 0.125000 0.687500
vt 0.125000 0.750000
vt 0.875000 0.625000
vt 0.875000 0.625000
vt 0.375000 0.000000
vt 0.625000 0.000000
vt 0.845455 0.687500
vt 0.845455 0.687500
vt 0.845454 0.713444
vt 0.845454 0.713444
vt 0.845455 0.625000
vt 0.845455 0.536556
vt 0.687801 0.536556
vt 0.654545 0.536556
vt 0.654546 0.687500
vt 0.654545 0.713444
vt 0.812801 0.713444
vt 0.812801 0.536556
vt 0.750601 0.536556
vt 0.687801 0.713444
vt 0.750601 0.713444
vt 0.654545 0.625000
vt 0.812801 0.536556
vt 0.845455 0.536556
vt 0.831419 0.687500
vt 0.831419 0.625000
vt 0.831419 0.553922
vt 0.812801 0.553922
vt 0.750601 0.553922
vt 0.687801 0.553922
vt 0.668581 0.553922
vt 0.668581 0.625000
vt 0.668581 0.687500
vt 0.668581 0.696078
vt 0.687800 0.696078
vt 0.750601 0.696078
vt 0.812801 0.696078
vt 0.831419 0.696078
vt 0.654545 0.536556
vt 0.687801 0.536556
vt 0.750601 0.536556
vt 0.750601 0.713444
vt 0.687801 0.713444
vt 0.845455 0.625000
vt 0.654545 0.713444
vt 0.654546 0.687500
vt 0.654545 0.625000
vt 0.812801 0.713444
vn -1.0000 0.0000 0.0000
vn 0.0000 0.0000 -1.0000
vn 1.0000 0.0000 0.0000
vn 0.0000 0.0000 1.0000
vn 0.0000 -1.0000 0.0000
vn 0.0000 1.0000 0.0000
vn 0.7071 0.7071 0.0000
vn 0.0000 0.7071 -0.7071
vn -0.0000 0.7071 0.7071
vn -0.7071 0.7071 0.0000
usemtl Material.020
s off
f 13/1/1 14/2/1 6/3/1 2/4/1
f 20/5/2 18/6/2 7/7/2 4/8/2
f 32/9/3 29/10/3 8/11/3 3/12/3
f 26/13/4 24/14/4 5/15/4 1/16/4
f 33/17/5 32/9/5 3/12/5 19/18/5
f 38/19/4 57/20/4 25/21/4 6/22/4
f 42/23/4 50/24/4 16/25/4 7/7/4
f 40/26/4 53/27/4 21/28/4 8/11/4
f 36/29/4 61/30/4 31/31/4 5/32/4
f 46/33/4 55/34/4 24/35/4 12/36/4
f 44/37/4 51/38/4 18/39/4 10/40/4
f 34/41/5 30/42/5 11/43/5 26/44/5
f 19/45/4 21/46/4 12/47/4 11/48/4
f 23/49/2 25/50/2 10/51/2 9/52/2
f 23/53/5 9/54/5 17/55/5 27/56/5
f 57/20/4 44/37/4 10/40/4 25/21/4
f 50/24/4 59/57/4 29/10/4 16/25/4
f 20/58/5 4/8/5 15/59/5 22/60/5
f 4/8/3 7/7/3 16/25/3 15/59/3
f 28/61/1 31/62/1 14/2/1 13/1/1
f 9/54/5 20/58/5 22/60/5 17/55/5
f 3/12/4 8/11/4 21/46/4 19/45/4
f 51/38/4 42/23/4 7/7/4 18/39/4
f 53/27/4 46/33/4 12/36/4 21/28/4
f 30/42/5 33/17/5 19/18/5 11/43/5
f 9/52/2 10/51/2 18/6/2 20/5/2
f 2/63/5 23/53/5 27/56/5 13/64/5
f 2/4/2 6/3/2 25/50/2 23/49/2
f 28/65/5 34/41/5 26/44/5 1/66/5
f 59/57/4 40/26/4 8/11/4 29/10/4
f 61/30/4 47/67/4 14/68/4 31/31/4
f 11/48/4 12/47/4 24/14/4 26/13/4
f 13/64/5 27/56/5 34/41/5 28/65/5
f 17/55/5 22/60/5 33/17/5 30/42/5
f 1/69/1 5/70/1 31/62/1 28/61/1
f 47/67/4 38/19/4 6/22/4 14/68/4
f 27/56/5 17/55/5 30/42/5 34/41/5
f 62/71/3 35/72/3 76/73/3 66/74/3
f 22/60/5 15/59/5 32/9/5 33/17/5
f 15/59/3 16/25/3 29/10/3 32/9/3
f 55/34/4 36/29/4 5/32/4 24/35/4
f 48/75/6 37/76/6 38/19/6 47/67/6
f 52/77/6 41/78/6 42/23/6 51/38/6
f 60/79/6 39/80/6 40/26/6 59/57/6
f 56/81/6 35/72/6 36/29/6 55/34/6
f 58/82/6 43/83/6 44/37/6 57/20/6
f 54/84/6 45/85/6 46/33/6 53/27/6
f 62/71/6 48/75/6 47/67/6 61/30/6
f 41/78/6 49/86/6 50/24/6 42/23/6
f 43/83/6 52/77/6 51/38/6 44/37/6
f 39/80/6 54/84/6 53/27/6 40/26/6
f 45/85/6 56/81/6 55/34/6 46/33/6
f 37/76/6 58/82/6 57/20/6 38/19/6
f 49/86/6 60/79/6 59/57/6 50/24/6
f 35/72/6 62/71/6 61/30/6 36/29/6
f 58/82/4 37/76/4 88/87/4 74/88/4
f 65/89/6 75/90/6 77/91/6 67/92/6 69/93/6 79/94/6 81/95/6 63/96/6 83/97/6 85/98/6 71/99/6 73/100/6 87/101/6 89/102/6
f 41/78/4 52/77/4 86/103/4 84/104/4
f 52/77/4 43/83/4 72/105/4 86/103/4
f 43/83/4 58/82/4 74/88/4 72/105/4
f 45/85/2 54/84/2 70/106/2 68/107/2
f 48/75/3 62/71/3 66/74/3 90/108/3
f 54/84/2 39/80/2 80/109/2 70/106/2
f 60/79/1 49/86/1 64/110/1 82/111/1
f 37/76/3 48/75/3 90/108/3 88/87/3
f 39/80/1 60/79/1 82/111/1 80/109/1
f 56/81/2 45/85/2 68/107/2 78/112/2
f 35/72/2 56/81/2 78/112/2 76/73/2
f 63/96/7 81/95/7 82/111/7 64/110/7
f 87/101/8 73/100/8 74/88/8 88/87/8
f 79/94/9 69/93/9 70/106/9 80/109/9
f 83/97/7 63/96/7 64/110/7 84/104/7
f 71/99/8 85/98/8 86/103/8 72/105/8
f 75/90/10 65/89/10 66/74/10 76/73/10
f 73/100/8 71/99/8 72/105/8 74/88/8
f 69/93/9 67/92/9 68/107/9 70/106/9
f 67/92/9 77/91/9 78/112/9 68/107/9
f 81/95/7 79/94/7 80/109/7 82/111/7
f 77/91/9 75/90/9 76/73/9 78/112/9
f 65/89/10 89/102/10 90/108/10 66/74/10
f 89/102/10 87/101/10 88/87/10 90/108/10
f 85/98/8 83/97/8 84/104/8 86/103/8
f 49/86/1 41/78/1 84/104/1 64/110/1
f 103/113/3 92/114/3 96/115/3 104/116/3
f 110/117/2 94/118/2 97/119/2 108/120/2
f 122/121/1 93/122/1 98/123/1 119/124/1
f 116/125/4 91/126/4 95/127/4 114/128/4
f 123/129/5 109/130/5 93/122/5 122/121/5
f 128/131/4 96/132/4 115/133/4 147/134/4
f 132/135/4 97/119/4 106/136/4 140/137/4
f 130/138/4 98/123/4 111/139/4 143/140/4
f 126/141/4 95/142/4 121/143/4 151/144/4
f 136/145/4 102/146/4 114/147/4 145/148/4
f 134/149/4 100/150/4 108/151/4 141/152/4
f 124/153/5 116/154/5 101/155/5 120/156/5
f 109/157/4 101/158/4 102/159/4 111/160/4
f 113/161/2 99/162/2 100/163/2 115/164/2
f 113/165/5 117/166/5 107/167/5 99/168/5
f 147/134/4 115/133/4 100/150/4 134/149/4
f 140/137/4 106/136/4 119/124/4 149/169/4
f 110/170/5 112/171/5 105/172/5 94/118/5
f 94/118/1 105/172/1 106/136/1 97/119/1
f 118/173/3 103/113/3 104/116/3 121/174/3
f 99/168/5 107/167/5 112/171/5 110/170/5
f 93/122/4 109/157/4 111/160/4 98/123/4
f 141/152/4 108/151/4 97/119/4 132/135/4
f 143/140/4 111/139/4 102/146/4 136/145/4
f 120/156/5 101/155/5 109/130/5 123/129/5
f 99/162/2 110/117/2 108/120/2 100/163/2
f 92/175/5 103/176/5 117/166/5 113/165/5
f 92/114/2 113/161/2 115/164/2 96/115/2
f 118/177/5 91/178/5 116/154/5 124/153/5
f 149/169/4 119/124/4 98/123/4 130/138/4
f 151/144/4 121/143/4 104/179/4 137/180/4
f 101/158/4 116/125/4 114/128/4 102/159/4
f 103/176/5 118/177/5 124/153/5 117/166/5
f 107/167/5 120/156/5 123/129/5 112/171/5
f 91/181/3 118/173/3 121/174/3 95/182/3
f 137/180/4 104/179/4 96/132/4 128/131/4
f 117/166/5 124/153/5 120/156/5 107/167/5
f 152/183/1 156/184/1 166/185/1 125/186/1
f 112/171/5 123/129/5 122/121/5 105/172/5
f 105/172/1 122/121/1 119/124/1 106/136/1
f 145/148/4 114/147/4 95/142/4 126/141/4
f 138/187/6 137/180/6 128/131/6 127/188/6
f 142/189/6 141/152/6 132/135/6 131/190/6
f 150/191/6 149/169/6 130/138/6 129/192/6
f 146/193/6 145/148/6 126/141/6 125/186/6
f 148/194/6 147/134/6 134/149/6 133/195/6
f 144/196/6 143/140/6 136/145/6 135/197/6
f 152/183/6 151/144/6 137/180/6 138/187/6
f 131/190/6 132/135/6 140/137/6 139/198/6
f 133/195/6 134/149/6 141/152/6 142/189/6
f 129/192/6 130/138/6 143/140/6 144/196/6
f 135/197/6 136/145/6 145/148/6 146/193/6
f 127/188/6 128/131/6 147/134/6 148/194/6
f 139/198/6 140/137/6 149/169/6 150/191/6
f 125/186/6 126/141/6 151/144/6 152/183/6
f 148/194/4 164/199/4 178/200/4 127/188/4
f 155/201/6 179/202/6 177/203/6 163/204/6 161/205/6 175/206/6 173/207/6 153/208/6 171/209/6 169/210/6 159/211/6 157/212/6 167/213/6 165/214/6
f 131/190/4 174/215/4 176/216/4 142/189/4
f 142/189/4 176/216/4 162/217/4 133/195/4
f 133/195/4 162/217/4 164/199/4 148/194/4
f 135/197/2 158/218/2 160/219/2 144/196/2
f 138/187/1 180/220/1 156/184/1 152/183/1
f 144/196/2 160/219/2 170/221/2 129/192/2
f 150/191/3 172/222/3 154/223/3 139/198/3
f 127/188/1 178/200/1 180/220/1 138/187/1
f 129/192/3 170/221/3 172/222/3 150/191/3
f 146/193/2 168/224/2 158/218/2 135/197/2
f 125/186/2 166/185/2 168/224/2 146/193/2
f 153/208/10 154/223/10 172/222/10 171/209/10
f 177/203/8 178/200/8 164/199/8 163/204/8
f 169/210/9 170/221/9 160/219/9 159/211/9
f 173/207/10 174/215/10 154/223/10 153/208/10
f 161/205/8 162/217/8 176/216/8 175/206/8
f 165/214/7 166/185/7 156/184/7 155/201/7
f 163/204/8 164/199/8 162/217/8 161/205/8
f 159/211/9 160/219/9 158/218/9 157/212/9
f 157/212/9 158/218/9 168/224/9 167/213/9
f 171/209/10 172/222/10 170/221/10 169/210/10
f 167/213/9 168/224/9 166/185/9 165/214/9
f 155/201/7 156/184/7 180/220/7 179/202/7
f 179/202/7 180/220/7 178/200/7 177/203/7
f 175/206/8 176/216/8 174/215/8 173/207/8
f 139/198/3 154/223/3 174/215/3 131/190/3
