# Blender v2.90.1 OBJ File: 'photograph.blend'
# www.blender.org
mtllib photograph.mtl
o frame_Cube.002
v 1.000000 -0.872535 0.872535
v 1.000000 1.000000 1.000000
v 1.000000 -0.872535 -0.872535
v 1.000000 1.000000 -1.000000
v 1.000000 2.038965 -0.872535
v 1.000000 2.038965 0.872535
v 0.665740 -1.000000 -1.000000
v 0.660166 -1.000000 -1.000000
v 0.665740 -1.000000 1.000000
v 0.672609 -1.000000 1.000000
v 0.660166 2.166431 -1.000000
v 0.672609 2.166431 1.000000
v 0.838183 1.000000 -1.000000
v 0.838183 -1.000000 1.000000
v 0.838183 2.166431 -1.000000
v 0.838183 -1.000000 -1.000000
v 0.838183 1.000000 1.000000
v 0.838183 2.166431 1.000000
v 1.006351 -1.000000 -1.000000
v 1.006351 -1.000000 1.000000
v 1.006351 2.166431 1.000000
v 1.006351 -1.000000 -1.000000
v 1.006351 -1.000000 1.000000
v 1.006351 2.166431 -1.000000
v 1.000000 1.000000 -1.000000
v 1.000000 -1.000000 -1.000000
v 1.000000 -1.000000 1.000000
v 1.000000 1.000000 1.000000
v 1.000000 2.166431 -1.000000
v 1.000000 2.166431 1.000000
v 1.000000 1.000000 -0.872535
v 1.000000 -1.000000 -1.000000
v 1.000000 -1.000000 1.000000
v 1.000000 1.000000 0.872535
v 1.000000 2.166431 -1.000000
v 1.000000 2.166431 1.000000
v 0.846351 1.000000 -0.872535
v 0.846351 1.000000 0.872535
v 0.846351 -0.872535 -0.872535
v 0.846351 -0.872535 0.872535
v 0.846351 2.038965 -0.872535
v 0.846351 2.038965 0.872535
v 0.658808 2.166431 -1.000000
v 0.658808 2.166431 1.000000
v 0.658808 -0.993979 -1.000000
v 0.658808 -0.993979 1.000000
vt 0.375000 0.479773
vt 0.625000 0.479773
vt 0.625000 0.500000
vt 0.375000 0.500000
vt 0.625000 0.734067
vt 0.390933 0.734067
vt 0.390933 0.734067
vt 0.625000 0.734067
vt 0.354773 0.500000
vt 0.375000 0.750000
vt 0.354773 0.750000
vt 0.375000 0.875000
vt 0.375000 0.875000
vt 0.375000 0.875000
vt 0.375000 0.875000
vt 0.625000 0.875000
vt 0.625000 0.875000
vt 0.625000 0.770227
vt 0.625000 0.750000
vt 0.625000 0.750000
vt 0.625000 0.770227
vt 0.291609 0.500000
vt 0.291609 0.750000
vt 0.250000 0.750000
vt 0.250000 0.500000
vt 0.625000 0.734067
vt 0.625000 0.734067
vt 0.375000 0.375000
vt 0.375000 0.375000
vt 0.375000 0.375000
vt 0.375000 0.375000
vt 0.645227 0.500000
vt 0.708740 0.500000
vt 0.707962 0.750000
vt 0.645227 0.750000
vt 0.625000 0.375000
vt 0.625000 0.375000
vt 0.750000 0.500000
vt 0.750000 0.750000
vt 0.375000 0.770227
vt 0.625000 0.500000
vt 0.625000 0.479773
vt nan nan
vt nan nan
vt nan nan
vt nan nan
vt 0.375000 0.500000
vt 0.375000 0.750000
vt nan nan
vt nan nan
vt nan nan
vt nan nan
vt 0.625000 0.750000
vt 0.625000 0.500000
vt nan nan
vt nan nan
vt nan nan
vt nan nan
vt nan nan
vt nan nan
vt nan nan
vt nan nan
vt 0.625000 0.515933
vt 0.390933 0.515933
vt 0.625000 0.500000
vt 0.625000 0.750000
vt 0.625000 0.515933
vt 0.625000 0.515933
vt 0.390933 0.515933
vt 0.625000 0.515933
vt 0.750000 0.500000
vt 0.750000 0.750000
vt 0.750000 0.750000
vt 0.750000 0.500000
vn 0.0000 0.0000 -1.0000
vn 0.0000 -1.0000 0.0000
vn 0.0000 0.0000 1.0000
vn 0.0000 1.0000 0.0000
vn 1.0000 0.0000 0.0000
usemtl (null)
s off
f 16/1/1 13/2/1 25/3/1 26/4/1
f 34/5/1 1/6/1 40/7/1 38/8/1
f 16/9/2 26/4/2 27/10/2 14/11/2
f 9/12/3 10/13/3 20/14/3 23/15/3
f 10/13/1 12/16/1 21/17/1 20/14/1
f 17/18/3 2/19/3 30/20/3 18/21/3
f 7/22/4 9/23/4 23/24/4 19/25/4
f 6/26/1 34/5/1 38/8/1 42/27/1
f 8/28/3 7/29/3 19/30/3 22/31/3
f 15/32/4 11/33/4 12/34/4 18/35/4
f 11/36/3 8/28/3 22/31/3 24/37/3
f 12/34/2 11/33/2 24/38/2 21/39/2
f 27/10/3 2/19/3 17/18/3 14/40/3
f 29/41/4 15/32/4 18/35/4 30/20/4
f 25/3/1 13/2/1 15/42/1 29/41/1
f 7/22/2 16/9/2 14/11/2 9/23/2
f 4/43/3 32/44/3 26/45/3 25/46/3
f 32/47/3 33/48/3 27/10/3 26/4/3
f 33/49/3 28/50/3 2/51/3 27/52/3
f 36/53/3 35/54/3 29/41/3 30/20/3
f 28/55/3 36/56/3 30/57/3 2/58/3
f 35/59/3 4/60/3 25/61/3 29/62/3
f 31/63/5 3/64/5 32/47/5 4/65/5
f 3/64/5 1/6/5 33/48/5 32/47/5
f 1/6/5 34/5/5 28/66/5 33/48/5
f 6/26/5 5/67/5 35/54/5 36/53/5
f 34/5/5 6/26/5 36/53/5 28/66/5
f 5/67/5 31/63/5 4/65/5 35/54/5
f 3/64/3 31/63/3 37/68/3 39/69/3
f 31/63/3 5/67/3 41/70/3 37/68/3
f 5/67/2 6/26/2 42/27/2 41/70/2
f 1/6/4 3/64/4 39/69/4 40/7/4
f 43/71/5 44/72/5 46/73/5 45/74/5
o photo_Cube.003
v 0.846351 2.038965 -0.872535
v 0.846351 2.038965 0.872535
v 0.846351 -0.916604 -0.872535
v 0.846351 -0.916604 0.872535
vt 0.102745 1.003265
vt 0.893271 1.002338
vt 0.893271 -0.013599
vt 0.101158 -0.007909
vn 1.0000 0.0000 0.0000
usemtl Material.002
s off
f 47/75/6 48/76/6 50/77/6 49/78/6
