# Blender v2.90.1 OBJ File: 'newPokemonGym.blend'
# www.blender.org
mtllib walkWayPathFence.mtl
o walkWay_Cube.017
v 3.608088 0.003998 -40.032719
v 3.608088 2.003998 -40.032719
v 3.608088 0.003998 -63.506763
v 3.608088 2.003998 -63.506763
v 3.992580 0.003998 -40.032719
v 3.992580 2.003998 -40.032719
v 3.992580 0.003998 -63.506763
v 3.992580 2.003998 -63.506763
v -3.608088 0.003998 -40.032719
v -3.608088 2.003998 -40.032719
v -3.608088 0.003998 -63.506763
v -3.608088 2.003998 -63.506763
v -3.992580 0.003998 -40.032719
v -3.992580 2.003998 -40.032719
v -3.992580 0.003998 -63.506763
v -3.992580 2.003998 -63.506763
vt 0.776175 1.000000
vt 0.388089 1.000000
vt 0.388088 0.000000
vt 0.776175 0.000000
vt 0.925392 0.085201
vt 0.925392 0.000000
vt 1.000000 0.000000
vt 1.000000 0.085201
vt 0.388088 1.000000
vt 0.000001 1.000000
vt 0.000000 0.000000
vt 0.388087 0.000000
vt 0.925392 0.170401
vt 0.925392 0.085201
vt 1.000000 0.085201
vt 1.000000 0.170401
vt 0.850784 0.000000
vt 0.925392 0.000000
vt 0.925392 1.000000
vt 0.850784 1.000000
vt 0.850783 1.000000
vt 0.776175 1.000000
vt 0.776176 0.000000
vt 0.850784 0.000000
vt 0.776175 1.000000
vt 0.776175 0.000000
vt 0.388088 0.000000
vt 0.388089 1.000000
vt 0.925392 0.085201
vt 1.000000 0.085201
vt 1.000000 0.000000
vt 0.925392 0.000000
vt 0.388088 1.000000
vt 0.388087 0.000000
vt 0.000000 0.000000
vt 0.000001 1.000000
vt 0.925392 0.170401
vt 1.000000 0.170401
vt 1.000000 0.085201
vt 0.925392 0.085201
vt 0.850784 0.000000
vt 0.850784 1.000000
vt 0.925392 1.000000
vt 0.925392 0.000000
vt 0.850783 1.000000
vt 0.850784 0.000000
vt 0.776176 0.000000
vt 0.776175 1.000000
vn -1.0000 0.0000 0.0000
vn 0.0000 0.0000 -1.0000
vn 1.0000 0.0000 0.0000
vn 0.0000 0.0000 1.0000
vn 0.0000 -1.0000 0.0000
vn 0.0000 1.0000 0.0000
usemtl Material.014
s off
f 1/1/1 2/2/1 4/3/1 3/4/1
f 3/5/2 4/6/2 8/7/2 7/8/2
f 7/9/3 8/10/3 6/11/3 5/12/3
f 5/13/4 6/14/4 2/15/4 1/16/4
f 3/17/5 7/18/5 5/19/5 1/20/5
f 8/21/6 4/22/6 2/23/6 6/24/6
f 9/25/3 11/26/3 12/27/3 10/28/3
f 11/29/2 15/30/2 16/31/2 12/32/2
f 15/33/1 13/34/1 14/35/1 16/36/1
f 13/37/4 9/38/4 10/39/4 14/40/4
f 11/41/5 9/42/5 13/43/5 15/44/5
f 16/45/6 14/46/6 10/47/6 12/48/6
