# Blender v2.90.1 OBJ File: 'newPokemonGym.blend'
# www.blender.org
mtllib benches2.mtl
o benches2_Cube.012
v -13.040787 -0.089291 -39.746918
v -13.040787 0.551503 -39.746918
v -13.156666 -0.089291 -0.191599
v -13.156666 0.551503 -0.191599
v -14.249378 -0.089291 -39.750458
v -14.249378 0.551503 -39.750458
v -14.365257 -0.089291 -0.195139
v -14.365257 0.551503 -0.195139
v -15.260468 0.551503 -0.197762
v -15.260468 -0.089291 -0.197762
v -15.144589 -0.089291 -39.753078
v -15.144589 0.551503 -39.753078
v -14.365257 1.389144 -0.195139
v -14.249378 1.389144 -39.750458
v -15.260468 1.389144 -0.197762
v -15.144589 1.389144 -39.753078
v -16.203178 0.551503 -0.200523
v -16.087299 0.551503 -39.755840
v -16.203178 1.389144 -0.200523
v -16.087299 1.389144 -39.755840
v -15.260468 2.272300 -0.197762
v -15.144589 2.272300 -39.753078
v -16.203178 2.272300 -0.200523
v -16.087299 2.272300 -39.755840
v -17.039127 1.389144 -0.202972
v -16.923248 1.389144 -39.758289
v -17.039127 2.272300 -0.202972
v -16.923248 2.272300 -39.758289
v -16.203178 2.995516 -0.200523
v -16.087299 2.995516 -39.755840
v -17.039127 2.995516 -0.202972
v -16.923248 2.995516 -39.758289
v -17.803677 2.272300 -0.205212
v -17.687798 2.272300 -39.760529
v -17.803677 2.995516 -0.205212
v -17.687798 2.995516 -39.760529
v -17.039127 3.862488 -0.202972
v -16.923248 3.862488 -39.758289
v -17.803677 3.862488 -0.205212
v -17.687798 3.862488 -39.760529
v -18.592720 2.995516 -0.207523
v -18.476841 2.995516 -39.762840
v -18.592720 3.862488 -0.207523
v -18.476841 3.862488 -39.762840
v -17.803677 4.696267 -0.205212
v -17.687798 4.696267 -39.760529
v -18.592720 4.696267 -0.207523
v -18.476841 4.696267 -39.762840
v -19.490341 3.862488 -0.210154
v -19.374462 3.862488 -39.765472
v -19.490341 4.696267 -0.210154
v -19.374462 4.696267 -39.765472
v -18.592720 5.510412 -0.207523
v -18.476841 5.510412 -39.762840
v -19.490341 5.510412 -0.210154
v -19.374462 5.510412 -39.765472
v -20.236845 4.696267 -0.212339
v -20.120966 4.696267 -39.767654
v -20.236845 5.510412 -0.212339
v -20.120966 5.510412 -39.767654
v -19.490341 6.364226 -0.210154
v -19.374462 6.364226 -39.765472
v -20.236845 6.364226 -0.212339
v -20.120966 6.364226 -39.767654
v -21.040010 5.510412 -0.214693
v -20.924131 5.510412 -39.770012
v -21.040010 6.364226 -0.214693
v -20.924131 6.364226 -39.770012
v -20.236845 7.216765 -0.212339
v -20.120966 7.216765 -39.767654
v -21.040010 7.216765 -0.214693
v -20.924131 7.216765 -39.770012
v -26.999228 6.364226 -0.232151
v -26.883348 6.364226 -39.787468
v -26.999228 7.216765 -0.232151
v -26.883348 7.216765 -39.787468
v -13.136684 -0.089291 -7.012522
v -13.136684 0.551503 -7.012522
v -14.345275 -0.089291 -7.016062
v -14.345275 0.551503 -7.016062
v -15.240486 -0.089291 -7.018684
v -15.240486 0.551503 -7.018684
v -14.345275 1.389144 -7.016062
v -15.240486 1.389144 -7.018684
v -16.183197 0.551503 -7.021446
v -16.183197 1.389144 -7.021446
v -15.240486 2.272300 -7.018684
v -16.183197 2.272300 -7.021446
v -17.019144 1.389144 -7.023895
v -17.019144 2.272300 -7.023895
v -16.183197 2.995516 -7.021446
v -17.019144 2.995516 -7.023895
v -17.783695 2.272300 -7.026135
v -17.783695 2.995516 -7.026135
v -17.019144 3.862488 -7.023895
v -17.783695 3.862488 -7.026135
v -18.572737 2.995516 -7.028446
v -18.572737 3.862488 -7.028446
v -17.783695 4.696267 -7.026135
v -18.572737 4.696267 -7.028446
v -19.470360 3.862488 -7.031076
v -19.470360 4.696267 -7.031076
v -18.572737 5.510412 -7.028446
v -19.470360 5.510412 -7.031076
v -20.216862 4.696267 -7.033263
v -20.216862 5.510412 -7.033263
v -19.470360 6.364226 -7.031076
v -20.216862 6.364226 -7.033263
v -21.020027 5.510412 -7.035616
v -21.020027 6.364226 -7.035616
v -20.216862 7.216765 -7.033263
v -21.020027 7.216765 -7.035616
v -26.979244 6.364226 -7.053074
v -26.979244 7.216765 -7.053074
v -13.135086 -0.089291 -7.557942
v -14.343677 0.551503 -7.561482
v -15.238889 0.551503 -7.564105
v -14.343677 1.389144 -7.561482
v -15.238889 1.389144 -7.564105
v -16.181599 0.551503 -7.566867
v -16.181599 1.389144 -7.566867
v -15.238889 2.272300 -7.564105
v -16.181599 2.272300 -7.566867
v -17.017548 1.389144 -7.569316
v -17.017548 2.272300 -7.569316
v -16.181599 2.995516 -7.566867
v -17.017548 2.995516 -7.569316
v -17.782097 2.272300 -7.571556
v -17.782097 2.995516 -7.571556
v -17.017548 3.862488 -7.569316
v -17.782097 3.862488 -7.571556
v -18.571140 2.995516 -7.573867
v -18.571140 3.862488 -7.573867
v -17.782097 4.696267 -7.571556
v -18.571140 4.696267 -7.573867
v -19.468761 3.862488 -7.576497
v -19.468761 4.696267 -7.576497
v -18.571140 5.510412 -7.573867
v -19.468761 5.510412 -7.576497
v -20.215263 4.696267 -7.578684
v -20.215263 5.510412 -7.578684
v -19.468761 6.364226 -7.576497
v -20.215263 6.364226 -7.578684
v -21.018431 5.510412 -7.581037
v -21.018431 6.364226 -7.581037
v -20.215263 7.216765 -7.578684
v -21.018431 7.216765 -7.581037
v -26.977648 6.364226 -7.598495
v -26.977648 7.216765 -7.598495
v -13.135086 0.551503 -7.557942
v -14.343677 -0.089291 -7.561482
v -15.238889 -0.089291 -7.564105
vt 0.375000 0.250000
vt 0.625000 0.250000
vt 0.625000 0.500000
vt 0.375000 0.500000
vt 0.625000 0.750000
vt 0.375000 0.750000
vt 0.375000 0.750000
vt 0.625000 0.750000
vt 0.625000 1.000000
vt 0.375000 1.000000
vt 0.125000 0.546557
vt 0.375000 0.546557
vt 0.125000 0.750000
vt 0.375000 0.546557
vt 0.625000 0.546557
vt 0.375000 0.543110
vt 0.375000 0.500000
vt 0.375000 0.543110
vt 0.625000 0.500000
vt 0.625000 0.500000
vt 0.625000 0.500000
vt 0.625000 0.500000
vt 0.625000 0.500000
vt 1.154891 13.171282
vt 0.441222 13.249894
vt 0.541802 11.477815
vt 0.997406 11.891039
vt 0.625000 0.543110
vt 0.625000 0.543110
vt 0.625000 0.543110
vt -0.274404 13.226672
vt -0.248478 11.426344
vt -0.061940 9.495687
vt 0.368802 10.028838
vt 1.571929 10.089186
vt 1.228378 10.710418
vt 0.777956 9.821592
vt 0.770527 9.018134
vt 0.625000 0.543110
vt 0.625000 0.500000
vt 0.625000 0.500000
vt 0.625000 0.543110
vt 1.160317 8.453612
vt 1.902555 9.576241
vt -0.936336 11.326544
vt -0.803868 9.269025
vt -0.414775 7.552056
vt -0.039821 8.155239
vt 0.443068 8.033750
vt 0.535258 7.276395
vt 1.006178 6.863996
vt 1.544150 8.029538
vt 0.625000 0.543110
vt 0.625000 0.500000
vt 0.625000 0.500000
vt 0.625000 0.543110
vt -1.124677 7.195959
vt -0.517513 5.209230
vt -0.217129 5.883827
vt -1.469560 8.978841
vt 0.305095 5.905405
vt 0.498145 5.186707
vt 1.050817 4.894481
vt 1.482018 6.570073
vt 0.625000 0.543110
vt 0.625000 0.500000
vt 0.625000 0.500000
vt 0.625000 0.543110
vt 0.625000 0.500000
vt 0.625000 0.543110
vt -1.810935 6.778582
vt -1.234744 4.643684
vt -0.367290 2.805681
vt -0.132162 3.594829
vt 0.402700 3.741468
vt 0.678891 3.027128
vt 0.625000 0.500000
vt 0.625000 0.543110
vt 1.428354 2.778980
vt 1.706031 4.657068
vt -1.996467 3.897325
vt -1.125421 1.894045
vt 0.047298 0.231176
vt 0.204155 1.266099
vt 0.625000 0.500000
vt 0.625000 0.500000
vt 0.625000 0.500000
vt 0.736574 1.563515
vt 1.176013 0.788712
vt 0.625000 0.543110
vt 0.625000 0.543110
vt -1.683897 1.068401
vt -0.552540 -0.656091
vt 0.659776 -2.400866
vt 0.847931 -1.463683
vt 0.625000 0.500000
vt 0.625000 0.500000
vt 0.625000 0.543110
vt 0.625000 0.500000
vt 0.625000 0.500000
vt 0.625000 0.543110
vt -1.141499 -1.500918
vt -0.013099 -3.273595
vt 0.975372 -5.060821
vt 1.266416 -4.220661
vt 0.625000 0.500000
vt 0.625000 0.500000
vt 0.625000 0.500000
vt 0.625000 0.500000
vt 0.625000 0.543110
vt 0.625000 0.543110
vt 0.625000 0.750000
vt 0.625000 0.750000
vt 0.625000 0.750000
vt 0.625000 0.750000
vt 0.625000 0.546557
vt 0.625000 0.546557
vt 1.680473 -2.243807
vt 1.934684 -4.103408
vt 1.953414 -4.100197
vt 2.136742 -4.082170
vt 1.878218 -2.169069
vt 1.698849 -2.237598
vt 0.625000 0.546557
vt 1.930332 -5.321764
vt 0.591759 -13.141977
vt 1.480226 -13.237019
vt 1.572211 -13.247490
vt 1.757194 -13.267954
vt 2.147007 -5.327819
vt 1.949669 -5.323077
vt 0.625000 0.546557
vt 0.625000 0.546557
vt 0.625000 0.206890
vt 0.375000 0.206890
vt 0.375000 0.203443
vt 0.375000 0.000000
vt 0.625000 0.000000
vt 0.625000 0.203443
vt 0.625000 0.546557
vt 0.625000 0.546557
vt 0.990612 0.600846
vt 1.501436 -1.142346
vt 1.519221 -1.132934
vt 1.697377 -1.053892
vt 1.004553 0.611570
vt 0.625000 0.546557
vt 0.493792 2.915414
vt 0.615902 1.502688
vt 0.629867 1.509513
vt 0.507340 2.920284
vt 0.625000 0.546557
vt 0.625000 0.546557
vt 0.625000 0.546557
vt 0.310285 5.118300
vt 0.284821 3.715616
vt 0.298470 3.718475
vt 0.323819 5.119936
vt 0.625000 0.546557
vt 0.625000 0.546557
vt 0.191541 5.905973
vt 0.204964 5.905669
vt 0.625000 0.546557
vt 0.625000 0.546557
vt 0.608008 9.056901
vt 0.340654 8.065266
vt 0.352001 8.061880
vt 0.618610 9.052444
vt 0.357629 7.262520
vt 0.370130 7.260787
vt 0.625000 0.546557
vt 1.118606 10.815344
vt 0.682741 9.880594
vt 0.693062 9.873848
vt 1.128846 10.805294
vt 0.125000 0.500000
vt 0.125000 0.543110
vt 0.625000 0.750000
vt 0.625000 0.750000
vt 0.625000 0.750000
vt 0.625000 0.750000
vt 0.625000 0.750000
vt 0.625000 0.750000
vt 0.625000 0.750000
vt 0.625000 0.750000
vt 0.625000 0.750000
vt 0.625000 0.750000
vt 0.625000 0.750000
vt 0.625000 0.750000
vt 0.625000 0.750000
vt 2.008764 13.950688
vt 1.415446 14.267954
vt 1.744884 12.850655
vt 1.758478 12.843253
vt 1.877176 12.779436
vt 2.147007 13.873962
vt 2.021555 13.943812
vt 1.434511 11.595515
vt 1.446147 11.587391
vt 1.559296 11.497649
vn -0.0029 0.0000 1.0000
vn 0.0029 0.0000 -1.0000
vn 0.0000 -1.0000 0.0000
vn -1.0000 0.0000 -0.0029
vn 1.0000 0.0000 0.0029
vn 0.0000 1.0000 -0.0000
usemtl Material.010
s off
f 3/1/1 4/2/1 8/3/1 7/4/1
f 6/5/2 5/6/2 11/7/2 12/8/2
f 5/6/2 6/5/2 2/9/2 1/10/2
f 115/11/3 151/12/3 5/6/3 1/13/3
f 152/14/4 117/15/4 12/8/4 11/7/4
f 79/16/3 7/4/3 10/17/3 81/18/3
f 9/19/1 15/20/1 19/21/1 17/22/1
f 7/4/1 8/3/1 9/19/1 10/17/1
f 9/19/1 8/3/1 13/23/1 15/20/1
f 6/24/2 12/25/2 16/26/2 14/27/2
f 85/28/4 17/22/4 19/21/4 86/29/4
f 82/30/3 9/19/3 17/22/3 85/28/3
f 16/26/2 12/25/2 18/31/2 20/32/2
f 16/26/2 20/32/2 24/33/2 22/34/2
f 19/35/1 15/36/1 21/37/1 23/38/1
f 89/39/4 25/40/4 27/41/4 90/42/4
f 19/35/1 23/38/1 27/43/1 25/44/1
f 86/29/3 19/21/3 25/40/3 89/39/3
f 24/33/2 20/32/2 26/45/2 28/46/2
f 24/33/2 28/46/2 32/47/2 30/48/2
f 27/43/1 23/38/1 29/49/1 31/50/1
f 27/43/1 31/50/1 35/51/1 33/52/1
f 93/53/4 33/54/4 35/55/4 94/56/4
f 32/47/2 36/57/2 40/58/2 38/59/2
f 32/47/2 28/46/2 34/60/2 36/57/2
f 90/42/3 27/41/3 33/54/3 93/53/3
f 35/51/1 31/50/1 37/61/1 39/62/1
f 35/51/1 39/62/1 43/63/1 41/64/1
f 97/65/4 41/66/4 43/67/4 98/68/4
f 98/68/3 43/67/3 49/69/3 101/70/3
f 94/56/3 35/55/3 41/66/3 97/65/3
f 40/58/2 36/57/2 42/71/2 44/72/2
f 40/58/2 44/72/2 48/73/2 46/74/2
f 43/63/1 39/62/1 45/75/1 47/76/1
f 101/70/4 49/69/4 51/77/4 102/78/4
f 43/63/1 47/76/1 51/79/1 49/80/1
f 48/73/2 44/72/2 50/81/2 52/82/2
f 48/73/2 52/82/2 56/83/2 54/84/2
f 51/77/1 55/85/1 59/86/1 57/87/1
f 51/79/1 47/76/1 53/88/1 55/89/1
f 105/90/4 57/87/4 59/86/4 106/91/4
f 102/78/3 51/77/3 57/87/3 105/90/3
f 56/83/2 52/82/2 58/92/2 60/93/2
f 56/83/2 60/93/2 64/94/2 62/95/2
f 59/86/1 55/85/1 61/96/1 63/97/1
f 109/98/4 65/99/4 67/100/4 110/101/4
f 59/86/1 63/97/1 67/100/1 65/99/1
f 106/91/3 59/86/3 65/99/3 109/98/3
f 64/94/2 60/93/2 66/102/2 68/103/2
f 64/94/2 68/103/2 72/104/2 70/105/2
f 67/100/1 63/97/1 69/106/1 71/107/1
f 67/100/1 71/107/1 75/108/1 73/109/1
f 113/110/4 73/109/4 75/108/4 114/111/4
f 72/112/2 68/113/2 74/114/2 76/115/2
f 110/101/3 67/100/3 73/109/3 113/110/3
f 145/116/3 110/101/3 113/110/3 148/117/3
f 143/118/5 64/94/5 70/105/5 146/119/5 111/120/5 69/121/5 63/122/5 108/123/5
f 148/117/4 113/110/4 114/111/4 149/124/4
f 147/125/6 72/104/6 76/126/6 149/127/6 114/128/6 75/129/6 71/130/6 112/131/6
f 141/132/3 106/91/3 109/98/3 144/133/3
f 144/133/4 109/98/4 110/101/4 145/116/4
f 78/134/5 4/2/5 3/1/5 77/135/5 115/136/5 1/137/5 2/138/5 150/139/5
f 137/140/3 102/78/3 105/90/3 140/141/3
f 140/141/4 105/90/4 106/91/4 141/132/4
f 139/142/5 56/83/5 62/95/5 142/143/5 107/144/5 61/145/5 55/89/5 104/146/5
f 142/143/6 62/95/6 64/94/6 143/118/6 108/123/6 63/122/6 61/145/6 107/144/6
f 136/147/4 101/70/4 102/78/4 137/140/4
f 135/148/5 48/73/5 54/84/5 138/149/5 103/150/5 53/88/5 47/76/5 100/151/5
f 138/149/6 54/84/6 56/83/6 139/142/6 104/146/6 55/89/6 53/88/6 103/150/6
f 129/152/3 94/56/3 97/65/3 132/153/3
f 133/154/3 98/68/3 101/70/3 136/147/3
f 132/153/4 97/65/4 98/68/4 133/154/4
f 131/155/5 40/58/5 46/74/5 134/156/5 99/157/5 45/75/5 39/62/5 96/158/5
f 134/156/6 46/74/6 48/73/6 135/148/6 100/151/6 47/76/6 45/75/6 99/157/6
f 125/159/3 90/42/3 93/53/3 128/160/3
f 128/160/4 93/53/4 94/56/4 129/152/4
f 130/161/6 38/59/6 40/58/6 131/155/6 96/158/6 39/62/6 37/61/6 95/162/6
f 121/163/3 86/29/3 89/39/3 124/164/3
f 124/164/4 89/39/4 90/42/4 125/159/4
f 123/165/5 24/33/5 30/48/5 126/166/5 91/167/5 29/49/5 23/38/5 88/168/5
f 127/169/5 32/47/5 38/59/5 130/161/5 95/162/5 37/61/5 31/50/5 92/170/5
f 126/166/6 30/48/6 32/47/6 127/169/6 92/170/6 31/50/6 29/49/6 91/167/6
f 117/15/3 82/30/3 85/28/3 120/171/3
f 120/171/4 85/28/4 86/29/4 121/163/4
f 119/172/5 16/26/5 22/34/5 122/173/5 87/174/5 21/37/5 15/36/5 84/175/5
f 122/173/6 22/34/6 24/33/6 123/165/6 88/168/6 23/38/6 21/37/6 87/174/6
f 151/12/3 79/16/3 81/18/3 152/14/3
f 10/17/4 9/19/4 82/30/4 81/18/4
f 3/176/3 7/4/3 79/16/3 77/177/3
f 5/6/3 151/12/3 152/14/3 11/7/3
f 18/178/4 120/171/4 121/163/4 20/179/4
f 12/8/3 117/15/3 120/171/3 18/178/3
f 26/180/4 124/164/4 125/159/4 28/181/4
f 20/179/3 121/163/3 124/164/3 26/180/3
f 34/182/4 128/160/4 129/152/4 36/183/4
f 28/181/3 125/159/3 128/160/3 34/182/3
f 42/184/4 132/153/4 133/154/4 44/185/4
f 44/185/3 133/154/3 136/147/3 50/186/3
f 36/183/3 129/152/3 132/153/3 42/184/3
f 50/186/4 136/147/4 137/140/4 52/187/4
f 58/188/4 140/141/4 141/132/4 60/189/4
f 52/187/3 137/140/3 140/141/3 58/188/3
f 66/190/4 144/133/4 145/116/4 68/113/4
f 60/189/3 141/132/3 144/133/3 66/190/3
f 74/114/4 148/117/4 149/124/4 76/115/4
f 68/113/3 145/116/3 148/117/3 74/114/3
f 81/18/4 82/30/4 117/15/4 152/14/4
f 77/177/3 79/16/3 151/12/3 115/11/3
f 150/191/6 2/192/6 6/24/6 116/193/6 80/194/6 8/195/6 4/196/6 78/197/6
f 146/119/6 70/105/6 72/104/6 147/125/6 112/131/6 71/130/6 69/121/6 111/120/6
f 116/193/5 6/24/5 14/27/5 118/198/5 83/199/5 13/200/5 8/195/5 80/194/5
f 118/198/6 14/27/6 16/26/6 119/172/6 84/175/6 15/36/6 13/200/6 83/199/6
