# Blender v2.90.1 OBJ File: 'newPokemonGym.blend'
# www.blender.org
mtllib entrySign.mtl
o sign_Cube.026
v -7.531753 8.229041 -82.016975
v -7.531753 14.613198 -82.016975
v -7.531753 8.229041 -82.816078
v -7.531753 14.613198 -82.816078
v 7.531753 8.229041 -82.016975
v 7.531753 14.613198 -82.016975
v 7.531753 8.229041 -82.816078
v 7.531753 14.613198 -82.816078
vt 0.052710 -0.431544
vt 0.052710 0.196188
vt -0.853556 0.196188
vt -0.853556 -0.431544
vt 0.958976 0.196188
vt 0.958976 0.823919
vt 0.052711 0.823919
vt 0.052710 0.196188
vt -0.853556 0.823919
vt -0.853556 0.196188
vt 0.958976 0.196188
vt 0.052710 0.196188
vt 0.052710 -0.431544
vt 0.958976 -0.431544
vt 0.052710 -1.059276
vt 0.052710 -0.431544
vt -0.853556 -0.431544
vt -0.853556 -1.059276
vt 0.958976 0.196188
vt 1.865242 0.196188
vt 1.865242 0.823919
vt 0.958977 0.823919
vn -1.0000 0.0000 0.0000
vn 0.0000 0.0000 -1.0000
vn 1.0000 0.0000 0.0000
vn 0.0000 0.0000 1.0000
vn 0.0000 -1.0000 0.0000
vn 0.0000 1.0000 0.0000
usemtl Material.021
s off
f 1/1/1 2/2/1 4/3/1 3/4/1
f 3/5/2 4/6/2 8/7/2 7/8/2
f 7/8/3 8/7/3 6/9/3 5/10/3
f 5/11/4 6/12/4 2/13/4 1/14/4
f 3/15/5 7/16/5 5/17/5 1/18/5
f 8/19/6 4/20/6 2/21/6 6/22/6
