# Blender v2.90.1 OBJ File: 'newPokemonGym.blend'
# www.blender.org
mtllib entryFloor.mtl
o entryFloor_Plane.001
v -27.148853 0.000000 -63.719833
v 27.148853 0.000000 -63.719833
v -27.148853 0.000000 -81.083923
v 27.148853 0.000000 -81.083923
v -26.430162 -0.243689 -81.123062
v -26.430162 -0.243689 -63.758972
v 27.867544 -0.243689 -63.758972
v 27.867544 -0.243689 -81.123062
v 27.148853 0.000000 -63.719833
v -27.148853 0.000000 -63.719833
v 27.148853 0.000000 -81.083923
v -27.148853 0.000000 -81.083923
v 26.430162 -0.243689 -81.123062
v 26.430162 -0.243689 -63.758972
v -27.867544 -0.243689 -63.758972
v -27.867544 -0.243689 -81.123062
vt -0.657908 0.059231
vt -0.657908 0.964547
vt 1.640350 0.964547
vt 1.640350 0.059231
vt -0.657908 0.059231
vt 1.640350 0.059231
vt 1.640350 0.964547
vt -0.657908 0.964547
vt -0.657908 0.059231
vt 1.640350 0.059231
vt 1.640350 0.964547
vt -0.657908 0.964547
vt -0.657908 0.059231
vt -0.657908 0.964547
vt 1.640350 0.964547
vt 1.640350 0.059231
vn 0.0000 -1.0000 0.0000
vn 0.0000 1.0000 0.0000
vn -0.3211 -0.9470 0.0000
vn 0.3211 0.9470 0.0000
vn 0.0000 -0.1586 0.9873
vn 0.0000 0.1586 -0.9873
vn 0.3211 -0.9470 0.0000
vn -0.3211 0.9470 0.0000
usemtl Material.009
s off
f 1/1/1 3/2/1 4/3/1 2/4/1
f 6/5/2 7/6/2 8/7/2 5/8/2
f 2/4/3 4/3/3 8/7/3 7/6/3
f 3/2/4 1/1/4 6/5/4 5/8/4
f 4/3/5 3/2/5 5/8/5 8/7/5
f 1/1/6 2/4/6 7/6/6 6/5/6
f 9/9/1 10/10/1 12/11/1 11/12/1
f 14/13/2 13/14/2 16/15/2 15/16/2
f 10/10/7 15/16/7 16/15/7 12/11/7
f 11/12/8 13/14/8 14/13/8 9/9/8
f 12/11/5 16/15/5 13/14/5 11/12/5
f 9/9/6 14/13/6 15/16/6 10/10/6
