# Blender v2.90.1 OBJ File: 'newPokemonGym.blend'
# www.blender.org
mtllib walkWayFloor.mtl
o grass_Plane.002
v -27.222404 0.000000 -39.878403
v 27.222404 0.000000 -39.878403
v -27.222404 0.000000 -63.851265
v 27.222404 0.000000 -63.851265
v 27.222404 0.000000 -39.878403
v -27.222404 0.000000 -39.878403
v 27.222404 0.000000 -63.851265
v -27.222404 0.000000 -63.851265
v -27.222404 0.000000 -63.851265
v 27.222404 0.000000 -63.851265
v -27.222404 0.000000 -39.878403
v 27.222404 0.000000 -39.878403
v 27.222404 0.000000 -63.851265
v -27.222404 0.000000 -63.851265
v 27.222404 0.000000 -39.878403
v -27.222404 0.000000 -39.878403
vt 0.984910 0.407514
vt -0.001008 0.407514
vt -0.001008 -0.001891
vt 0.984910 -0.001892
vt 0.984910 0.407514
vt 0.984910 -0.001892
vt -0.001008 -0.001891
vt -0.001008 0.407514
vt 0.984910 0.407514
vt 0.984910 -0.001892
vt -0.001008 -0.001891
vt -0.001008 0.407514
vt 0.984910 0.407514
vt -0.001008 0.407514
vt -0.001008 -0.001891
vt 0.984910 -0.001892
vn 0.0000 1.0000 0.0000
usemtl Material.001
s off
f 1/1/1 2/2/1 4/3/1 3/4/1
f 5/5/1 7/6/1 8/7/1 6/8/1
f 9/9/1 11/10/1 12/11/1 10/12/1
f 13/13/1 14/14/1 16/15/1 15/16/1
